<svg width="111" height="115" viewBox="0 0 111 115" fill="none" xmlns="http://www.w3.org/2000/svg">
<g id="icon">
<path id="Line 1" d="M35.8712 13.7984L51.017 66.1303" stroke="url(#paint0_linear_21_413)" stroke-width="4.72044"/>
<path id="Line 2" d="M50.5043 10.1235L54.5592 107.038" stroke="url(#paint1_linear_21_413)" stroke-width="4.72044"/>
<path id="Ellipse 2" d="M50.6889 69.1932C55.1189 68.7408 59.4732 67.5281 63.5032 65.6244C67.5331 63.7206 71.1598 61.1631 74.1761 58.0978C77.1924 55.0324 79.5394 51.5194 81.0829 47.7592C82.6264 43.999 83.3363 40.0652 83.172 36.1826C83.0077 32.2999 81.9725 28.5444 80.1254 25.1304C78.2783 21.7164 75.6556 18.7108 72.4069 16.2852C69.1583 13.8596 65.3473 12.0616 61.1916 10.9937C57.0359 9.92575 52.6169 9.60894 48.1869 10.0613L48.4012 15.1266C52.0723 14.7517 55.7342 15.0143 59.178 15.8992C62.6217 16.7842 65.7797 18.2742 68.4718 20.2842C71.1639 22.2943 73.3373 24.7849 74.868 27.614C76.3986 30.4431 77.2565 33.5553 77.3926 36.7727C77.5287 39.9902 76.9405 43.25 75.6614 46.366C74.3823 49.482 72.4375 52.3932 69.9379 54.9334C67.4383 57.4735 64.433 59.5929 61.0935 61.1705C57.754 62.7481 54.1457 63.753 50.4746 64.1279L50.6889 69.1932Z" fill="url(#paint2_linear_21_413)"/>
<path id="Ellipse 1" d="M38.0542 12.8528C33.7506 14.0869 29.695 16.0267 26.1189 18.5614C22.5428 21.0962 19.5163 24.1764 17.2121 27.626C14.908 31.0757 13.3713 34.8272 12.6899 38.6666C12.0085 42.5059 12.1956 46.3577 13.2407 50.0022C14.2857 53.6467 16.1682 57.0125 18.7806 59.9073C21.393 62.8021 24.6842 65.1693 28.4662 66.8738C32.2483 68.5782 36.4472 69.5865 40.8231 69.8411C45.199 70.0957 49.6663 69.5916 53.9699 68.3575L52.6065 63.6029C49.0402 64.6255 45.3383 65.0433 41.7121 64.8323C38.0858 64.6214 34.6063 63.7858 31.4722 62.3734C28.3381 60.9609 25.6108 58.9993 23.4459 56.6004C21.2811 54.2015 19.7211 51.4124 18.8551 48.3923C17.9891 45.3722 17.834 42.1802 18.3987 38.9987C18.9634 35.8171 20.2368 32.7083 22.1462 29.8496C24.0556 26.991 26.5636 24.4386 29.527 22.338C32.4904 20.2375 35.8513 18.63 39.4175 17.6074L38.0542 12.8528Z" fill="url(#paint3_linear_21_413)"/>
</g>
<defs>
<linearGradient id="paint0_linear_21_413" x1="41.5538" y1="42.1786" x2="41.3017" y2="42.2509" gradientUnits="userSpaceOnUse">
<stop stop-color="#43CDF9"/>
<stop offset="1" stop-color="#0047FF" stop-opacity="0"/>
</linearGradient>
<linearGradient id="paint1_linear_21_413" x1="63.4976" y1="55.4363" x2="41.5659" y2="61.7251" gradientUnits="userSpaceOnUse">
<stop stop-color="#19C3F9"/>
<stop offset="1" stop-color="#ED5BFA"/>
</linearGradient>
<linearGradient id="paint2_linear_21_413" x1="57.5367" y1="67.8709" x2="41.3392" y2="11.3835" gradientUnits="userSpaceOnUse">
<stop stop-color="#52FF59"/>
<stop offset="1" stop-color="#2DFFCD"/>
</linearGradient>
<linearGradient id="paint3_linear_21_413" x1="38.0542" y1="12.8528" x2="53.9699" y2="68.3575" gradientUnits="userSpaceOnUse">
<stop stop-color="#52FF59"/>
<stop offset="1" stop-color="#2DFFCD"/>
</linearGradient>
</defs>
</svg>
