<svg width="489" height="138" viewBox="0 0 489 138" fill="none" xmlns="http://www.w3.org/2000/svg">
<path d="M9.9356 116V49.7627H37.8499C44.9152 49.7627 51.1289 51.1505 56.491 53.9261C61.9161 56.7018 66.1112 60.5814 69.0761 65.565C72.1041 70.5486 73.6181 76.3207 73.6181 82.8813C73.6181 89.442 72.1041 95.2141 69.0761 100.198C66.1112 105.181 61.9161 109.061 56.491 111.837C51.1289 114.612 44.9152 116 37.8499 116H9.9356ZM19.3981 107.768H37.2822C42.7704 107.768 47.5016 106.727 51.4759 104.645C55.5132 102.563 58.6358 99.6615 60.8437 95.9395C63.0516 92.1546 64.1556 87.8018 64.1556 82.8813C64.1556 77.8978 63.0516 73.545 60.8437 69.8231C58.6358 66.1012 55.5132 63.1994 51.4759 61.1176C47.5016 59.0359 42.7704 57.995 37.2822 57.995H19.3981V107.768ZM86.7872 116V65.8489H95.8712V116H86.7872ZM91.3292 56.1971C89.5628 56.1971 88.0804 55.6294 86.8818 54.4939C85.7463 53.3584 85.1786 51.9706 85.1786 50.3304C85.1786 48.6272 85.7463 47.2078 86.8818 46.0723C88.0804 44.9368 89.5628 44.369 91.3292 44.369C93.0955 44.369 94.5464 44.9368 95.6819 46.0723C96.8805 47.1447 97.4798 48.501 97.4798 50.1412C97.4798 51.8444 96.912 53.2953 95.7765 54.4939C94.641 55.6294 93.1586 56.1971 91.3292 56.1971ZM139.994 65.3757C144.095 65.3757 147.691 66.1643 150.782 67.7414C153.936 69.3184 156.396 71.7156 158.162 74.9328C159.929 78.1501 160.812 82.219 160.812 87.1394V116H151.728V88.1803C151.728 83.3229 150.529 79.6641 148.132 77.2038C145.798 74.7436 142.486 73.5135 138.197 73.5135C134.979 73.5135 132.172 74.1443 129.775 75.406C127.378 76.6676 125.517 78.5286 124.192 80.9888C122.93 83.4491 122.3 86.5086 122.3 90.1674V116H113.216V65.8489H121.921V79.3802L120.502 75.7845C122.142 72.5041 124.665 69.9493 128.072 68.1199C131.478 66.2904 135.452 65.3757 139.994 65.3757ZM199.955 116.568C194.593 116.568 189.861 115.464 185.761 113.256C181.724 111.048 178.57 108.02 176.299 104.172C174.091 100.324 172.987 95.908 172.987 90.9244C172.987 85.9409 174.059 81.525 176.204 77.677C178.412 73.8289 181.408 70.8324 185.193 68.6876C189.041 66.4797 193.363 65.3757 198.157 65.3757C203.014 65.3757 207.304 66.4482 211.026 68.593C214.748 70.7378 217.65 73.7658 219.731 77.677C221.876 81.525 222.949 86.0355 222.949 91.2083C222.949 91.5868 222.917 92.0284 222.854 92.5331C222.854 93.0377 222.822 93.5108 222.759 93.9524H180.084V87.4233H218.028L214.338 89.6943C214.401 86.4771 213.738 83.6068 212.351 81.0835C210.963 78.5601 209.039 76.6045 206.578 75.2167C204.181 73.7658 201.374 73.0403 198.157 73.0403C195.003 73.0403 192.195 73.7658 189.735 75.2167C187.275 76.6045 185.351 78.5917 183.963 81.1781C182.575 83.7014 181.881 86.6032 181.881 89.8836V91.3976C181.881 94.741 182.638 97.7374 184.152 100.387C185.729 102.973 187.906 104.992 190.681 106.443C193.457 107.894 196.643 108.619 200.239 108.619C203.204 108.619 205.885 108.115 208.282 107.105C210.742 106.096 212.887 104.582 214.716 102.563L219.731 108.43C217.46 111.08 214.622 113.098 211.215 114.486C207.872 115.874 204.118 116.568 199.955 116.568ZM233.269 93.9524V86.0986H258.723V93.9524H233.269ZM272.71 116V65.8489H281.794V116H272.71ZM277.252 56.1971C275.486 56.1971 274.003 55.6294 272.805 54.4939C271.669 53.3584 271.101 51.9706 271.101 50.3304C271.101 48.6272 271.669 47.2078 272.805 46.0723C274.003 44.9368 275.486 44.369 277.252 44.369C279.018 44.369 280.469 44.9368 281.605 46.0723C282.803 47.1447 283.403 48.501 283.403 50.1412C283.403 51.8444 282.835 53.2953 281.699 54.4939C280.564 55.6294 279.082 56.1971 277.252 56.1971ZM325.917 65.3757C330.018 65.3757 333.613 66.1643 336.705 67.7414C339.859 69.3184 342.319 71.7156 344.085 74.9328C345.852 78.1501 346.735 82.219 346.735 87.1394V116H337.651V88.1803C337.651 83.3229 336.452 79.6641 334.055 77.2038C331.721 74.7436 328.409 73.5135 324.119 73.5135C320.902 73.5135 318.095 74.1443 315.698 75.406C313.301 76.6676 311.44 78.5286 310.115 80.9888C308.853 83.4491 308.222 86.5086 308.222 90.1674V116H299.139V65.8489H307.844V79.3802L306.425 75.7845C308.065 72.5041 310.588 69.9493 313.995 68.1199C317.401 66.2904 321.375 65.3757 325.917 65.3757ZM436.701 116.568C431.339 116.568 426.608 115.464 422.508 113.256C418.47 111.048 415.316 108.02 413.045 104.172C410.837 100.324 409.733 95.908 409.733 90.9244C409.733 85.9409 410.806 81.525 412.951 77.677C415.159 73.8289 418.155 70.8324 421.94 68.6876C425.788 66.4797 430.109 65.3757 434.904 65.3757C439.761 65.3757 444.051 66.4482 447.773 68.593C451.494 70.7378 454.396 73.7658 456.478 77.677C458.623 81.525 459.695 86.0355 459.695 91.2083C459.695 91.5868 459.664 92.0284 459.601 92.5331C459.601 93.0377 459.569 93.5108 459.506 93.9524H416.83V87.4233H454.775L451.084 89.6943C451.148 86.4771 450.485 83.6068 449.097 81.0835C447.71 78.5601 445.785 76.6045 443.325 75.2167C440.928 73.7658 438.121 73.0403 434.904 73.0403C431.749 73.0403 428.942 73.7658 426.482 75.2167C424.022 76.6045 422.098 78.5917 420.71 81.1781C419.322 83.7014 418.628 86.6032 418.628 89.8836V91.3976C418.628 94.741 419.385 97.7374 420.899 100.387C422.476 102.973 424.653 104.992 427.428 106.443C430.204 107.894 433.39 108.619 436.985 108.619C439.95 108.619 442.631 108.115 445.028 107.105C447.489 106.096 449.634 104.582 451.463 102.563L456.478 108.43C454.207 111.08 451.368 113.098 447.962 114.486C444.618 115.874 440.865 116.568 436.701 116.568Z" fill="url(#paint0_linear_21_410)"/>
<path d="M369.871 22.7984L385.017 75.1303" stroke="url(#paint1_linear_21_410)" stroke-width="4.72044"/>
<path d="M384.504 20.1235L388.559 117.038" stroke="url(#paint2_linear_21_410)" stroke-width="4.72044"/>
<path d="M384.689 78.1932C389.119 77.7408 393.473 76.5281 397.503 74.6244C401.533 72.7206 405.16 70.1631 408.176 67.0978C411.192 64.0324 413.539 60.5194 415.083 56.7592C416.626 52.999 417.336 49.0652 417.172 45.1826C417.008 41.2999 415.972 37.5444 414.125 34.1304C412.278 30.7164 409.656 27.7108 406.407 25.2852C403.158 22.8596 399.347 21.0616 395.192 19.9937C391.036 18.9258 386.617 18.6089 382.187 19.0613L382.401 24.1266C386.072 23.7517 389.734 24.0143 393.178 24.8992C396.622 25.7842 399.78 27.2742 402.472 29.2842C405.164 31.2943 407.337 33.7849 408.868 36.614C410.399 39.4431 411.256 42.5553 411.393 45.7727C411.529 48.9902 410.94 52.25 409.661 55.366C408.382 58.482 406.437 61.3932 403.938 63.9334C401.438 66.4735 398.433 68.5929 395.093 70.1705C391.754 71.7481 388.146 72.753 384.475 73.1279L384.689 78.1932Z" fill="url(#paint3_linear_21_410)"/>
<path d="M372.054 21.8528C367.751 23.0869 363.695 25.0267 360.119 27.5614C356.543 30.0962 353.516 33.1764 351.212 36.626C348.908 40.0757 347.371 43.8272 346.69 47.6666C346.008 51.5059 346.196 55.3577 347.241 59.0022C348.286 62.6467 350.168 66.0125 352.781 68.9073C355.393 71.8021 358.684 74.1693 362.466 75.8738C366.248 77.5782 370.447 78.5865 374.823 78.8411C379.199 79.0957 383.666 78.5916 387.97 77.3575L386.607 72.6029C383.04 73.6255 379.338 74.0433 375.712 73.8323C372.086 73.6214 368.606 72.7858 365.472 71.3734C362.338 69.9609 359.611 67.9993 357.446 65.6004C355.281 63.2015 353.721 60.4124 352.855 57.3923C351.989 54.3722 351.834 51.1802 352.399 47.9987C352.963 44.8171 354.237 41.7083 356.146 38.8496C358.056 35.991 360.564 33.4386 363.527 31.338C366.49 29.2375 369.851 27.63 373.418 26.6074L372.054 21.8528Z" fill="url(#paint4_linear_21_410)"/>
<defs>
<linearGradient id="paint0_linear_21_410" x1="2.73367e-06" y1="78.9361" x2="344.907" y2="78.9361" gradientUnits="userSpaceOnUse">
<stop stop-color="#59C6E9"/>
<stop offset="1" stop-color="#52FF59"/>
</linearGradient>
<linearGradient id="paint1_linear_21_410" x1="375.554" y1="51.1786" x2="375.302" y2="51.2509" gradientUnits="userSpaceOnUse">
<stop stop-color="#43CDF9"/>
<stop offset="1" stop-color="#0047FF" stop-opacity="0"/>
</linearGradient>
<linearGradient id="paint2_linear_21_410" x1="397.498" y1="65.4363" x2="375.566" y2="71.7251" gradientUnits="userSpaceOnUse">
<stop stop-color="#19C3F9"/>
<stop offset="1" stop-color="#ED5BFA"/>
</linearGradient>
<linearGradient id="paint3_linear_21_410" x1="391.537" y1="76.8709" x2="375.339" y2="20.3835" gradientUnits="userSpaceOnUse">
<stop stop-color="#52FF59"/>
<stop offset="1" stop-color="#2DFFCD"/>
</linearGradient>
<linearGradient id="paint4_linear_21_410" x1="372.054" y1="21.8528" x2="387.97" y2="77.3575" gradientUnits="userSpaceOnUse">
<stop stop-color="#52FF59"/>
<stop offset="1" stop-color="#2DFFCD"/>
</linearGradient>
</defs>
</svg>
